<svg width="137" height="137" viewBox="0 0 137 137" fill="none" xmlns="http://www.w3.org/2000/svg">
<circle cx="68.4996" cy="68.5" r="67.5" transform="rotate(-0.781326 68.4996 68.5)" fill="#0B8FAC"/>
<path d="M111.435 60.2824C113.38 60.9412 114.422 63.0481 113.763 64.9937L113.77 64.9883L109.092 78.8358C108.225 81.3918 106.564 83.6068 104.355 85.1506L79.9373 102.212C78.5888 103.154 76.7381 102.826 75.7959 101.477L72.3889 96.6016C71.4467 95.2531 71.7749 93.4025 73.1234 92.4602L75.927 90.5012L77.4313 85.3684C78.1972 82.781 79.8186 80.5256 82.0356 78.9765L94.0957 70.5497C95.4441 69.6075 97.2948 69.9357 98.2371 71.2841C99.1793 72.6326 98.8511 74.4833 97.5026 75.4255L91.4078 79.6842C90.7374 80.1527 90.5721 81.0845 91.0406 81.7549C91.509 82.4253 92.4408 82.5906 93.1113 82.1221L102.299 75.7022L106.723 62.6106C107.382 60.665 109.489 59.6237 111.435 60.2824Z" fill="white"/>
<path d="M24.1469 61.4728C22.22 62.1844 21.2365 64.3189 21.9481 66.2458L21.9403 66.2407L26.9946 79.9554C27.9311 82.4868 29.6518 84.6557 31.9025 86.1387L56.776 102.528C58.1496 103.433 59.9907 103.054 60.8958 101.681L64.1685 96.7137C65.0736 95.34 64.695 93.499 63.3214 92.5939L60.4654 90.7121L58.8217 85.6222C57.9855 83.0567 56.3032 80.8463 54.0448 79.3582L41.7594 71.2634C40.3857 70.3583 38.5447 70.7369 37.6396 72.1105C36.7345 73.4842 37.113 75.3252 38.4867 76.2303L44.6954 80.3212C45.3783 80.7712 45.5689 81.6982 45.1189 82.3811C44.6689 83.0641 43.742 83.2547 43.059 82.8047L33.6994 76.6377L28.9199 63.6716C28.2083 61.7447 26.0738 60.7613 24.1469 61.4728Z" fill="white"/>
<path fill-rule="evenodd" clip-rule="evenodd" d="M87.0232 39.0716C88.4225 40.4801 89.5491 42.1631 90.34 44.0265C91.1601 45.9658 91.5937 48.0311 91.6171 50.1625C91.6445 52.173 91.2848 54.2733 90.5432 56.4151C89.928 58.2049 89.0226 60.0651 87.8662 61.9469C86.0339 64.9248 83.501 68.0391 80.3464 71.2041C75.113 76.4506 69.9206 80.0903 69.7 80.2443L68.3594 81.1805C67.7655 81.5932 66.9947 81.6037 66.3897 81.2073L65.0241 80.3081C64.7995 80.1662 59.5039 76.6635 54.1352 71.5616C50.8954 68.4837 48.2785 65.4397 46.3656 62.5128C45.1584 60.6633 44.2083 58.8284 43.5388 57.0561C42.739 54.9354 42.3222 52.8456 42.2948 50.8351C42.2657 48.7039 42.6429 46.6274 43.4099 44.6665C44.1475 42.781 45.228 41.0675 46.5902 39.6231C47.958 38.1672 49.5583 37.0161 51.3403 36.2068C53.1847 35.3664 55.1431 34.9291 57.1699 34.9014C59.9846 34.8631 62.7418 35.6407 65.1493 37.1477C65.7252 37.5082 66.2731 37.9053 66.793 38.3391C67.3008 37.8913 67.8377 37.4794 68.4036 37.1033C70.769 35.5312 73.5041 34.6787 76.3187 34.6403C78.325 34.608 80.3178 34.9976 82.1817 35.7862C83.9792 36.5436 85.6228 37.659 87.0232 39.0716ZM66.571 59.3136L66.6528 65.3092L69.6285 65.2686L69.5468 59.273L75.5424 59.1912L75.5018 56.2155L69.5062 56.2973L69.4246 50.3126L66.4488 50.3532L66.5305 56.3378L60.5458 56.4195L60.5864 59.3952L66.571 59.3136Z" fill="white"/>
</svg>
