<svg width="56" height="56" viewBox="0 0 56 56" fill="none" xmlns="http://www.w3.org/2000/svg">
<circle cx="28" cy="28" r="28" fill="#F8FEFF"/>
<path d="M45.8549 24.8344C46.6582 25.1186 47.0782 25.9984 46.7939 26.8016L46.7971 26.7995L44.7783 32.5166C44.4042 33.5719 43.7027 34.4812 42.7776 35.109L32.5534 42.0476C31.9887 42.4307 31.223 42.2841 30.8398 41.7195L29.4542 39.6778C29.0711 39.1132 29.2177 38.3474 29.7823 37.9642L30.9563 37.1676L31.6092 35.0471C31.9415 33.9782 32.6268 33.0519 33.5551 32.4219L38.6051 28.9949C39.1697 28.6117 39.9355 28.7583 40.3186 29.323C40.7018 29.8876 40.5552 30.6534 39.9906 31.0366L37.4385 32.7685C37.1578 32.959 37.084 33.3445 37.2745 33.6253C37.465 33.906 37.8506 33.9798 38.1313 33.7893L41.9785 31.1784L43.8876 25.7734C44.1719 24.9701 45.0517 24.5501 45.8549 24.8344Z" fill="#0B8FAC"/>
<path d="M9.64332 24.8344C8.84006 25.1186 8.42006 25.9984 8.70429 26.8016L8.70111 26.7995L10.7199 32.5166C11.094 33.5719 11.7955 34.4812 12.7206 35.109L22.9448 42.0475C23.5095 42.4307 24.2752 42.2841 24.6584 41.7195L26.044 39.6778C26.4272 39.1132 26.2806 38.3474 25.7159 37.9642L24.542 37.1676L23.889 35.0471C23.5567 33.9782 22.8714 33.0519 21.9431 32.4219L16.8932 28.9949C16.3285 28.6117 15.5628 28.7583 15.1796 29.323C14.7964 29.8876 14.943 30.6534 15.5076 31.0366L18.0597 32.7685C18.3404 32.959 18.4142 33.3445 18.2237 33.6253C18.0332 33.906 17.6477 33.9798 17.3669 33.7893L13.5197 31.1784L11.6106 25.7734C11.3264 24.9701 10.4466 24.5501 9.64332 24.8344Z" fill="#0B8FAC"/>
<path fill-rule="evenodd" clip-rule="evenodd" d="M35.8496 15.8986C36.4221 16.4907 36.8799 17.1951 37.1973 17.9725C37.5266 18.7815 37.6947 19.6406 37.6923 20.5248C37.6923 21.3589 37.5313 22.228 37.2115 23.1122C36.9463 23.8511 36.5602 24.6175 36.0699 25.3915C35.2931 26.6163 34.2249 27.8937 32.8985 29.1886C30.6982 31.3351 28.5239 32.8154 28.4315 32.878L27.8702 33.2588C27.6215 33.4266 27.3017 33.4266 27.053 33.2588L26.4917 32.878C26.3993 32.8179 24.2227 31.3351 22.0247 29.1886C20.6983 27.8937 19.6301 26.6163 18.8533 25.3915C18.363 24.6175 17.9793 23.8511 17.7116 23.1122C17.3919 22.228 17.2308 21.3589 17.2308 20.5248C17.2308 19.6406 17.399 18.7815 17.7282 17.9725C18.0448 17.1946 18.5027 16.49 19.0759 15.8986C19.6514 15.3025 20.3217 14.8341 21.0654 14.5085C21.8352 14.1703 22.65 14 23.4908 14C24.6585 14 25.7977 14.3382 26.7878 14.9769C27.0246 15.1296 27.2496 15.2975 27.4628 15.4803C27.6759 15.2975 27.9009 15.1296 28.1378 14.9769C29.1278 14.3382 30.2671 14 31.4348 14C32.2671 13.998 33.0915 14.1708 33.8601 14.5085C34.6014 14.8328 35.2768 15.3047 35.8496 15.8986ZM27.2521 24.1788V26.6661H28.4866V24.1788H30.9739V22.9443H28.4866V20.4616H27.2521V22.9443H24.7694V24.1788H27.2521Z" fill="#0B8FAC"/>
</svg>
